<svg width="76" height="34" viewBox="0 0 76 34" fill="none" xmlns="http://www.w3.org/2000/svg">
<rect width="76" height="34" rx="3" fill="#5956E9"/>
<path d="M7 20V12.72H9.07C9.79667 12.72 10.4133 12.83 10.92 13.05C11.4267 13.2633 11.8367 13.5533 12.15 13.92C12.4633 14.28 12.69 14.6833 12.83 15.13C12.9767 15.57 13.05 16.0133 13.05 16.46C13.05 17.0067 12.9533 17.5 12.76 17.94C12.5667 18.3733 12.3 18.7433 11.96 19.05C11.6267 19.3567 11.24 19.5933 10.8 19.76C10.3667 19.92 9.90667 20 9.42 20H7ZM8.17 18.88H9.21C9.72333 18.88 10.1767 18.7833 10.57 18.59C10.97 18.3967 11.2833 18.1167 11.51 17.75C11.7367 17.3767 11.85 16.92 11.85 16.38C11.85 15.9267 11.7733 15.54 11.62 15.22C11.4733 14.8933 11.2767 14.63 11.03 14.43C10.79 14.2233 10.5267 14.0733 10.24 13.98C9.95333 13.88 9.67 13.83 9.39 13.83H8.17V18.88ZM14.1574 16.37C14.1574 15.8633 14.2541 15.3867 14.4474 14.94C14.6408 14.4867 14.9074 14.09 15.2474 13.75C15.5874 13.4033 15.9808 13.1333 16.4274 12.94C16.8808 12.74 17.3641 12.64 17.8774 12.64C18.3841 12.64 18.8608 12.74 19.3074 12.94C19.7608 13.1333 20.1574 13.4033 20.4974 13.75C20.8441 14.09 21.1141 14.4867 21.3074 14.94C21.5074 15.3867 21.6074 15.8633 21.6074 16.37C21.6074 16.8833 21.5074 17.3633 21.3074 17.81C21.1141 18.2567 20.8441 18.65 20.4974 18.99C20.1574 19.33 19.7608 19.5967 19.3074 19.79C18.8608 19.9833 18.3841 20.08 17.8774 20.08C17.3641 20.08 16.8808 19.9867 16.4274 19.8C15.9808 19.6067 15.5874 19.3433 15.2474 19.01C14.9074 18.67 14.6408 18.2767 14.4474 17.83C14.2541 17.3767 14.1574 16.89 14.1574 16.37ZM15.3574 16.37C15.3574 16.85 15.4708 17.2867 15.6974 17.68C15.9241 18.0667 16.2274 18.3767 16.6074 18.61C16.9941 18.8433 17.4274 18.96 17.9074 18.96C18.3741 18.96 18.7941 18.8433 19.1674 18.61C19.5474 18.3767 19.8474 18.0667 20.0674 17.68C20.2941 17.2867 20.4074 16.85 20.4074 16.37C20.4074 15.8833 20.2941 15.4433 20.0674 15.05C19.8408 14.6567 19.5374 14.3433 19.1574 14.11C18.7774 13.8767 18.3508 13.76 17.8774 13.76C17.4041 13.76 16.9774 13.8767 16.5974 14.11C16.2174 14.3433 15.9141 14.66 15.6874 15.06C15.4674 15.4533 15.3574 15.89 15.3574 16.37ZM21.9755 12.76H23.3355L25.0355 17.62L26.2355 14.53L25.5455 12.76H26.6955L28.5655 17.48L30.1255 12.76H31.3755L28.5355 20.32L26.8155 15.99L24.8855 20.34L21.9755 12.76ZM39.1422 20.26L33.8922 15.17L33.9222 20H32.7422V12.47H32.8022L38.0322 17.63L38.0122 12.72H39.1722V20.26H39.1422ZM41.1797 12.72H42.3497V18.88H45.9397V20H41.1797V12.72ZM46.8723 16.37C46.8723 15.8633 46.9689 15.3867 47.1623 14.94C47.3556 14.4867 47.6223 14.09 47.9623 13.75C48.3023 13.4033 48.6956 13.1333 49.1423 12.94C49.5956 12.74 50.0789 12.64 50.5923 12.64C51.0989 12.64 51.5756 12.74 52.0223 12.94C52.4756 13.1333 52.8723 13.4033 53.2123 13.75C53.5589 14.09 53.8289 14.4867 54.0223 14.94C54.2223 15.3867 54.3223 15.8633 54.3223 16.37C54.3223 16.8833 54.2223 17.3633 54.0223 17.81C53.8289 18.2567 53.5589 18.65 53.2123 18.99C52.8723 19.33 52.4756 19.5967 52.0223 19.79C51.5756 19.9833 51.0989 20.08 50.5923 20.08C50.0789 20.08 49.5956 19.9867 49.1423 19.8C48.6956 19.6067 48.3023 19.3433 47.9623 19.01C47.6223 18.67 47.3556 18.2767 47.1623 17.83C46.9689 17.3767 46.8723 16.89 46.8723 16.37ZM48.0723 16.37C48.0723 16.85 48.1856 17.2867 48.4123 17.68C48.6389 18.0667 48.9423 18.3767 49.3223 18.61C49.7089 18.8433 50.1423 18.96 50.6223 18.96C51.0889 18.96 51.5089 18.8433 51.8823 18.61C52.2623 18.3767 52.5623 18.0667 52.7823 17.68C53.0089 17.2867 53.1223 16.85 53.1223 16.37C53.1223 15.8833 53.0089 15.4433 52.7823 15.05C52.5556 14.6567 52.2523 14.3433 51.8723 14.11C51.4923 13.8767 51.0656 13.76 50.5923 13.76C50.1189 13.76 49.6923 13.8767 49.3123 14.11C48.9323 14.3433 48.6289 14.66 48.4023 15.06C48.1823 15.4533 48.0723 15.89 48.0723 16.37ZM54.6873 20L57.9073 12.42H57.9773L61.1973 20H59.8573L59.1873 18.29H56.5373L55.8373 20H54.6873ZM56.9473 17.29H58.7973L57.8873 15L56.9473 17.29ZM62.4395 20V12.72H64.5095C65.2361 12.72 65.8528 12.83 66.3595 13.05C66.8661 13.2633 67.2761 13.5533 67.5895 13.92C67.9028 14.28 68.1295 14.6833 68.2695 15.13C68.4161 15.57 68.4895 16.0133 68.4895 16.46C68.4895 17.0067 68.3928 17.5 68.1995 17.94C68.0061 18.3733 67.7395 18.7433 67.3995 19.05C67.0661 19.3567 66.6795 19.5933 66.2395 19.76C65.8061 19.92 65.3461 20 64.8595 20H62.4395ZM63.6095 18.88H64.6495C65.1628 18.88 65.6161 18.7833 66.0095 18.59C66.4095 18.3967 66.7228 18.1167 66.9495 17.75C67.1761 17.3767 67.2895 16.92 67.2895 16.38C67.2895 15.9267 67.2128 15.54 67.0595 15.22C66.9128 14.8933 66.7161 14.63 66.4695 14.43C66.2295 14.2233 65.9661 14.0733 65.6795 13.98C65.3928 13.88 65.1095 13.83 64.8295 13.83H63.6095V18.88Z" fill="white"/>
</svg>
